<?xml version="1.0" encoding="UTF-8" standalone="no"?>
<!DOCTYPE svg PUBLIC "-//W3C//DTD SVG 1.1//EN" "http://www.w3.org/Graphics/SVG/1.1/DTD/svg11.dtd">
<svg version="1.1" xmlns="http://www.w3.org/2000/svg" xmlns:xlink="http://www.w3.org/1999/xlink" preserveAspectRatio="xMidYMid meet" viewBox="0 0 50 53" ><defs><path d="M36.65 22.39L28.4 30.67L28.4 0L21.16 0L21.16 30.72L12.84 22.39L8.38 26.95L9.22 27.79L10.03 28.61L10.82 29.41L11.59 30.18L12.34 30.94L13.07 31.67L13.77 32.38L14.46 33.08L15.13 33.75L15.77 34.4L16.39 35.02L16.99 35.63L17.57 36.21L18.13 36.78L18.67 37.32L19.19 37.84L19.68 38.34L20.16 38.82L20.61 39.28L21.04 39.71L21.46 40.13L21.85 40.52L22.22 40.89L22.56 41.25L22.89 41.58L23.2 41.88L23.48 42.17L23.75 42.44L23.99 42.68L24.21 42.9L24.24 42.93L24.27 42.96L24.3 42.98L24.34 43.01L24.37 43.03L24.4 43.05L24.44 43.06L24.48 43.08L24.51 43.09L24.55 43.1L24.59 43.11L24.62 43.12L24.66 43.12L24.7 43.13L24.74 43.13L24.78 43.13L24.82 43.13L24.85 43.12L24.89 43.12L24.93 43.11L24.97 43.1L25 43.08L25.04 43.07L25.08 43.05L25.11 43.04L25.14 43.02L25.18 42.99L25.21 42.97L25.24 42.94L25.27 42.92L25.5 42.7L25.74 42.46L26.01 42.21L26.3 41.93L26.61 41.63L26.94 41.31L27.29 40.97L27.67 40.61L28.06 40.23L28.48 39.83L28.92 39.41L29.38 38.96L29.86 38.5L30.36 38.02L30.89 37.51L31.43 36.99L32 36.44L32.59 35.87L33.2 35.29L33.83 34.68L34.48 34.05L35.16 33.4L35.85 32.73L36.57 32.04L37.31 31.33L38.06 30.6L38.85 29.85L39.65 29.08L40.47 28.29L41.32 27.47L41.32 27.47L36.65 22.39Z" id="blBfTC3JS"></path><path d="M0 48L49.7 48L49.7 52.72L0 52.72L0 48Z" id="c1yuGCJxVQ"></path></defs><g><g><g><use xlink:href="#blBfTC3JS" opacity="1" fill="#c8c8c8" fill-opacity="1"></use><g><use xlink:href="#blBfTC3JS" opacity="1" fill-opacity="0" stroke="#000000" stroke-width="1" stroke-opacity="0"></use></g></g><g><use xlink:href="#c1yuGCJxVQ" opacity="1" fill="#c8c8c8" fill-opacity="1"></use></g></g></g></svg>