<?xml version="1.0" encoding="UTF-8" standalone="no"?>
<!DOCTYPE svg PUBLIC "-//W3C//DTD SVG 1.1//EN" "http://www.w3.org/Graphics/SVG/1.1/DTD/svg11.dtd">
<svg 
	version="1.1" 
	xmlns="http://www.w3.org/2000/svg" 
	xmlns:xlink="http://www.w3.org/1999/xlink" 
	preserveAspectRatio="xMidYMid meet" 
	viewBox="0 0 50 50" 
	width="50" 
	height="50">
	<path 
		opacity="1" fill="#c8c8c8" fill-opacity="1" 
		d="M42.74 11.95C43.11 11.58 43.75 11.84 43.75 12.37C43.75 15.52 43.75 24.27 43.75 27.61C43.75 27.89 43.98 28.13 44.27 28.13C45.42 28.13 48.37 28.13 49.52 28.12C49.79 28.12 50 27.91 50 27.65C50 22.12 50 7.46 50 2.3C50 1.03 48.97 0 47.7 0C42.54 0 27.92 0 22.39 0C22.11 0 21.88 0.23 21.88 0.52C21.88 1.67 21.88 4.62 21.88 5.77C21.88 6.04 22.09 6.25 22.35 6.25C25.69 6.25 34.48 6.25 37.63 6.25C38.16 6.25 38.42 6.89 38.05 7.26C31.69 13.62 13.6 31.71 7.23 38.08C6.87 38.44 6.25 38.19 6.25 37.67C6.25 34.51 6.25 25.69 6.25 22.35C6.25 22.09 6.04 21.87 5.77 21.87C4.62 21.87 1.67 21.88 0.52 21.88C0.23 21.88 0 22.11 0 22.39C0 27.92 0 42.54 0 47.7C0 48.97 1.03 50 2.3 50C7.46 50 22.12 50 27.65 50C27.91 50 28.13 49.79 28.13 49.52C28.13 48.37 28.13 45.42 28.13 44.27C28.13 43.98 27.89 43.75 27.61 43.75C24.27 43.75 15.52 43.75 12.37 43.75C11.84 43.75 11.58 43.11 11.95 42.74C18.31 36.38 36.38 18.31 42.74 11.95Z"></path>
	
</svg>